<svg xmlns="http://www.w3.org/2000/svg" viewBox="0 0 600 400">
  <defs>
    <linearGradient id="bg" x1="0" y1="0" x2="1" y2="1">
      <stop offset="0%" stop-color="#101820" />
      <stop offset="100%" stop-color="#141c2c" />
    </linearGradient>
    <linearGradient id="gold" x1="0" y1="0" x2="1" y2="1">
      <stop offset="0%" stop-color="#f5c348" />
      <stop offset="100%" stop-color="#c88f2f" />
    </linearGradient>
  </defs>
  <rect width="600" height="400" rx="32" fill="url(#bg)" />
  <path d="M32 64h536v56H32z" fill="rgba(255,255,255,0.08)" />
  <rect x="44" y="76" width="110" height="32" rx="16" fill="#fff" />
  <rect x="164" y="80" width="120" height="24" rx="12" fill="rgba(255,255,255,0.22)" />
  <rect x="294" y="80" width="90" height="24" rx="12" fill="rgba(255,255,255,0.22)" />
  <rect x="402" y="80" width="80" height="24" rx="12" fill="rgba(255,255,255,0.22)" />
  <rect x="504" y="80" width="40" height="24" rx="12" fill="rgba(255,255,255,0.22)" />
  <g opacity="0.7">
    <path d="M40 160h520M40 190h520M40 220h520M40 250h520" stroke="rgba(255,255,255,0.08)" stroke-width="1" />
  </g>
  <rect x="64" y="132" width="110" height="44" rx="22" fill="url(#gold)" />
  <text x="70" y="162" font-family="Poppins,sans-serif" font-size="18" fill="#111" font-weight="700">PORTFOLIO</text>
  <rect x="204" y="132" width="110" height="44" rx="22" fill="none" stroke="#fff" stroke-opacity="0.35" stroke-width="2" />
  <text x="216" y="162" font-family="Poppins,sans-serif" font-size="18" fill="#fff" font-weight="600">Features</text>
  <rect x="324" y="132" width="120" height="44" rx="22" fill="none" stroke="#fff" stroke-opacity="0.35" stroke-width="2" />
  <text x="338" y="162" font-family="Poppins,sans-serif" font-size="18" fill="#fff" font-weight="600">How It Works</text>
  <rect x="452" y="132" width="100" height="44" rx="22" fill="none" stroke="#fff" stroke-opacity="0.35" stroke-width="2" />
  <text x="470" y="162" font-family="Poppins,sans-serif" font-size="18" fill="#fff" font-weight="600">Showcase</text>
  <rect x="520" y="132" width="60" height="44" rx="22" fill="rgba(255,255,255,0.12)" />
  <text x="532" y="162" font-family="Poppins,sans-serif" font-size="16" fill="#fff" font-weight="700">Pro</text>
  <text x="48" y="240" font-family="Poppins,sans-serif" font-size="76" fill="#fff" font-weight="800">BUILD</text>
  <text x="48" y="315" font-family="Poppins,sans-serif" font-size="76" fill="#d3ab4f" font-weight="800">YOUR</text>
  <text x="48" y="380" font-family="Poppins,sans-serif" font-size="76" fill="#d3ab4f" font-weight="800">PORTFOLIO</text>
  <circle cx="530" cy="170" r="56" fill="rgba(255,255,255,0.08)" />
  <circle cx="530" cy="170" r="36" fill="#1d2430" />
  <rect x="512" y="138" width="36" height="64" rx="18" fill="#ff2d55" />
  <rect x="550" y="144" width="28" height="28" rx="14" fill="#fff" />
  <text x="522" y="275" font-family="Poppins,sans-serif" font-size="16" fill="#fff">priya.design</text>
  <text x="522" y="296" font-family="Poppins,sans-serif" font-size="12" fill="#ccc">8,293 views</text>
</svg>